# xmcd CD database file
# Copyright (C) 1993-1996 Ti Kan
#
# Track frame offsets:
#	150
#	10245
#	22242
#	32587
#	48072
#	60902
#	72312
#	82790
#	94777
#	104205
#	124722
#	139062
#
# Disc length: 2038 seconds
#
# Revision: 1
# Processed by: cddbd v1.4b41PL1 Copyright (c) Steve Scherf et al.
# Submitted via: CDValet v3.31 - Copyright (c) 1997 Greg Leichner
#
DISCID=9707f40c
DTITLE=Hank Snow - The One And Only Hank Snow
DYEAR=1900
DGENRE=
TTITLE0=The Wreck Of The Old 97
TTITLE1=Unfaithful
TTITLE2=Spanish Fire Ball
TTITLE3=Lazy Bones
TTITLE4=I Wonder Where You Are Tonight
TTITLE5=Hobo Bill's Last Ride
TTITLE6=Lady's Man
TTITLE7=Married By The Bible, Divorce By The Law
TTITLE8=Carnival Of Venice
TTITLE9=Old Doc Brown
TTITLE10=Anniversary Blue Yodel
TTITLE11=The Drunkard's Son
EXTD=
EXTT0=
EXTT1=
EXTT2=
EXTT3=
EXTT4=
EXTT5=
EXTT6=
EXTT7=
EXTT8=
EXTT9=
EXTT10=
EXTT11=
PLAYORDER=
